<?xml version="1.0" encoding="utf-8"?>
<!-- Generator: Adobe Illustrator 18.1.1, SVG Export Plug-In . SVG Version: 6.00 Build 0)  -->
<svg version="1.1" id="Layer_1" xmlns="http://www.w3.org/2000/svg" xmlns:xlink="http://www.w3.org/1999/xlink" x="0px" y="0px"
	 viewBox="0 0 500 100" enable-background="new 0 0 500 100" xml:space="preserve">
<g>
	<path fill="#00AAD0" d="M278.4,16.5c5.1-0.4,10.9-0.7,17.6-0.7c14.3,0,19.4,7,19.4,26.8s-5.1,26.8-19.4,26.8
		c-6.8,0-12.5-0.3-17.6-0.7V16.5z M281.5,66.3c4.2,0.2,8.9,0.2,14.5,0.2c12,0,16.1-6.1,16.1-24s-4.2-24-16.1-24
		c-5.6,0-10.2,0.1-14.5,0.2V66.3z"/>
	<path fill="#00AAD0" d="M321,32.9c4.9-0.7,10.4-1.6,17.4-1.6c6.7,0,10.7,2.9,10.7,10.6v26.8h-2.3l-0.5-6.7c-3.1,3-10.1,7.3-17,7.3
		c-6.2,0-9.9-3.4-9.9-9.5v-4.5c0-5.5,3.3-8.7,9.1-8.7h17.6v-4.6c0-4.6-1.8-7.9-8.1-7.9c-5.1,0-11.3,0.5-16.7,1.1L321,32.9z
		 M322.6,59.5c0,4.5,2.3,6.8,7.1,6.9c5.1,0.2,12.1-3,16.4-7V48.9l-17.3,0.2c-4.2,0.1-6.3,2.3-6.3,6.3V59.5z"/>
	<path fill="#00AAD0" d="M385.5,68.7h-2.3l-0.4-6.1c-5,4.4-9.8,7-15,7c-9.5,0-13.1-5.6-13.1-19.1c0-13.9,3.9-19.1,13.4-19.1
		c4.8,0,9.6,1.4,14.6,3.7c-0.3-2.6-0.2-4.5-0.2-7.1V15.7h3V68.7z M382.5,37.3c-5.6-2.1-9.5-3.3-14-3.3c-7.6,0-10.7,4.2-10.7,16.3
		c0,12.3,3,16.5,10.6,16.5c4.5,0,8.2-2,14.1-6.7V37.3z"/>
	<path fill="#00AAD0" d="M398.7,50.7c-5.3-0.8-7.9-3.4-7.9-9.6c0-9,4.5-9.9,13.6-9.8c4.5,0.1,10,0.4,14.5,1l-0.3,2.2
		c-4.5-0.2-9.4-0.5-13.9-0.5c-7.8-0.2-11,0.1-11,7.1c0,5,2.1,6.5,5.9,7l11.9,1.7c5.4,0.9,8.3,3.6,8.3,9.5c0,9.2-5.1,10.2-14.7,10.2
		c-3.3,0-7.8-0.1-13.5-0.9l0.3-2.2c4.5,0.4,8.1,0.5,12.9,0.5c8.9-0.1,12-1.1,12-7.6c0-4.8-2.7-6.3-6.3-6.9L398.7,50.7z"/>
</g>
<g>
	<path fill="#BDD96B" d="M124.9,69.9c0,1-0.5,1.5-1.4,1.5h-4.1c-0.8,0-1.4-0.4-1.8-1.1l-22.7-43c-0.9-1.8-2-3.7-2.8-5.6h-1.8
		c0.1,1.9,0.1,3.8,0.1,5.7v44.1h-3.1V20.3c0-1,0.5-1.5,1.5-1.5h3.8c0.8,0,1.4,0.4,1.8,1.1l22.1,42c1.1,2.1,2.3,4.3,3.4,6.6h1.9
		c0-2.4-0.1-4.8-0.1-7.2V18.8h3.1V69.9z"/>
	<path fill="#BDD96B" d="M133,54.6c0.4,11.4,4.6,15,13.9,15c4.7,0,9.5-0.5,12.6-0.9l0.4,2.1c-2.7,0.9-9.3,1.5-13.4,1.5
		c-11.9,0-16.7-5.4-16.7-19.5c0-14.2,4.6-19.2,16.1-19.2c9.9,0,14.6,3.7,14.8,10.8c0.2,6.6-2.1,10-8.1,10H133z M152.2,52.1
		c4.2,0,5.6-2.8,5.4-7.3c-0.1-5.8-3.8-8.2-11.5-8.2c-9.5,0-13,4-13,15.6H152.2z"/>
	<path fill="#BDD96B" d="M208.3,70.5c-0.2,0.6-0.8,1-1.4,1h-3c-0.7,0-1.2-0.5-1.4-1.1l-8.6-27.8c-0.5-1.8-1.1-3.7-1.6-5.6h-0.8
		l-1.7,5.6l-8.5,27.8c-0.2,0.6-0.8,1.1-1.4,1.1h-3c-0.6,0-1.1-0.4-1.4-1l-12.2-35.8h3.2l9.8,29.4c0.6,1.7,1.1,3.4,1.6,5.1h1l1.6-5.2
		l8.7-28.2c0.2-0.6,0.7-1.1,1.4-1.1h2.8c0.7,0,1.2,0.5,1.4,1.1l8.8,28.2l1.5,5.2h1c0.6-1.8,1-3.4,1.6-5.2l9.8-29.3h3.2L208.3,70.5z"
		/>
</g>
<g>
	<path fill="#FED0A4" d="M278.1,46.5c-1.1,0-2,0.4-2.7,1.1c-0.3-11.2-6.4-20.9-15.1-25.8c-3.3-1.8-6.1-4.8-6.7-7.9
		c-2.1-10.6-5-11.8-7.4-12.1c-2.6-0.3-4.6,1.4-5,4C241,7,241.4,8.4,242.5,9c0.3,0.2,1,0.2,1-0.3s-0.7,0.2-1-0.1
		c-0.6-0.7-0.6-1.7-0.3-2.5c0.6-1.4,1.7-2.1,3.2-2c2.2,0.2,3.5,2.1,3.4,4.2c-0.3,0.1-0.9-2.6-3.3-2.3c-2.3,0.3-2.1,3.8-0.4,3.5
		c0.3-0.1,0.4-0.9,0-0.7c-0.3,0.3-0.6,0.3-0.6-0.1c-0.1-2.4,2.8-1.9,2.8,0.7c0,1.7-0.4,4.1-2.8,5.5c-2.2,1.2-10,4.4-16.5,11.7
		c-5.1,5.3-8.4,12.6-8.6,20.8c-0.7-0.7-1.7-1.1-2.7-1.1c-2.3,0-4.2,2-4.2,4.5s1.9,4.5,4.2,4.5c1.3,0,2.4-0.6,3.2-1.6
		c2.3,14.1,13.7,24.8,27.5,24.8s25.2-10.7,27.5-24.8c0.8,1,1.9,1.6,3.2,1.6c2.3,0,4.2-2,4.2-4.5C282.2,48.5,280.4,46.5,278.1,46.5z"
		/>
	<path fill="#F39648" d="M247.4,56.6c-1,0-1.8,0.6-2.5,1.6h5C249.2,57.2,248.4,56.6,247.4,56.6z"/>
	<g>
		<path fill="#FFFFFF" d="M241.5,49.4c0,2.6-1.9,4.6-4.3,4.6c-2.4,0-4.3-2.1-4.3-4.6s1.9-4.6,4.3-4.6
			C239.6,44.8,241.5,46.8,241.5,49.4z"/>
		<ellipse fill="#010101" cx="237.3" cy="49.8" rx="3.2" ry="3.4"/>
		<path fill="#FFFFFF" d="M236,48.6c0,0.4-0.3,0.7-0.6,0.7s-0.6-0.3-0.6-0.7s0.3-0.7,0.6-0.7C235.7,47.9,236,48.2,236,48.6z"/>
		<path fill="#FFFFFF" d="M261.9,49.4c0,2.6-1.9,4.6-4.3,4.6s-4.3-2.1-4.3-4.6s1.9-4.6,4.3-4.6C260,44.8,261.9,46.8,261.9,49.4z"/>
		<ellipse fill="#010101" cx="257.8" cy="49.8" rx="3.2" ry="3.4"/>
		<path fill="#FFFFFF" d="M256.4,48.6c0,0.4-0.3,0.7-0.6,0.7c-0.3,0-0.6-0.3-0.6-0.7s0.3-0.7,0.6-0.7
			C256.1,47.9,256.4,48.2,256.4,48.6z"/>
	</g>
	<path fill="#F39648" d="M254.9,65.2c-0.3-0.1-0.4,0.1-0.8,0.3c-0.4,0.2-2,0.5-3.5-0.1c-0.7-0.3-1.6-0.9-3.2-0.9l0,0
		c-1.5,0-2.4,0.6-3.2,0.9c-1.5,0.6-3.1,0.3-3.5,0.1c-0.4-0.2-0.5-0.4-0.8-0.3s-0.5,0.6-0.2,1.1c0.3,0.4,1.1,0.4,1.8,0.7
		c0.9,0.4,1.1,0.7,1.5,1.2c1.1,1.2,2.1,2.8,4.3,2.8s3.2-1.6,4.3-2.8c0.4-0.4,0.6-0.8,1.5-1.2c0.7-0.3,1.6-0.2,1.8-0.7
		C255.3,65.8,255.1,65.2,254.9,65.2z"/>
</g>
<line fill="none" stroke="#BDD96B" stroke-width="3" stroke-linecap="round" stroke-miterlimit="10" x1="140.2" y1="90.9" x2="29.2" y2="90.9"/>
<line fill="none" stroke="#BDD96B" stroke-width="3" stroke-linecap="round" stroke-miterlimit="10" x1="469.7" y1="90.9" x2="358.7" y2="90.9"/>
<g>
	<path fill="#00AAD0" d="M169.1,96.1c-1.3,0.4-2.5,0.5-4.5,0.5c-4.4,0-6-2.1-6-7.9s1.6-7.9,6-7.9c1.9,0,2.9,0.1,4.2,0.4l-0.2,1.7
		c-1.3-0.1-2.2-0.2-4-0.2c-2.8,0-3.7,1.4-3.7,5.9s0.9,5.9,3.7,5.9c1.9,0,3.1,0,4.3-0.2L169.1,96.1z"/>
	<path fill="#00AAD0" d="M192.4,96.4h-2.2v-7.2h-6.6v7.2h-2.2V81.2h2.2v6.1h6.6v-6.1h2.2V96.4z"/>
	<path fill="#00AAD0" d="M207.8,91.8l-1.4,4.6h-2.2l4.8-14.6c0.1-0.4,0.4-0.6,0.8-0.6h2.2c0.4,0,0.7,0.2,0.8,0.6l4.8,14.6h-2.3
		l-1.4-4.6H207.8z M211.5,84.1c-0.1-0.4-0.3-0.8-0.4-1.2h-0.6l-0.4,1.2l-1.8,5.8h4.9L211.5,84.1z"/>
	<path fill="#00AAD0" d="M233.6,83.2v13.2h-2.2V83.2h-4.8v-2h11.8v2H233.6z"/>
	<path fill="#00AAD0" d="M261.6,96.4l-1.3-4.7c-0.4-1.1-0.9-1.5-1.9-1.5l-3.1,0v6.3h-2.2V81.2c1.7-0.2,2.8-0.2,5.3-0.2
		c3.6,0,5,1,5,4.4c0,2.4-0.8,3.6-2.8,3.9v0.1c0.7,0.2,1.6,0.9,1.9,2.2l1.4,4.8H261.6z M258.4,88.3c2.1,0,2.8-0.6,2.8-2.7
		c0-2.1-0.7-2.6-2.8-2.6c-1.2,0-2.2,0-3.1,0v5.3H258.4z"/>
	<path fill="#00AAD0" d="M288,88.8c0,6-1.6,7.9-6.1,7.9c-4.5,0-6.1-1.9-6.1-7.9s1.6-7.9,6.1-7.9C286.4,80.9,288,82.8,288,88.8z
		 M278.2,88.8c0,4.5,0.9,5.9,3.7,5.9c2.9,0,3.8-1.4,3.8-5.9s-0.9-5.9-3.8-5.9C279.1,82.9,278.2,84.3,278.2,88.8z"/>
	<path fill="#00AAD0" d="M312.4,88.8c0,6-1.6,7.9-6.1,7.9c-4.5,0-6.1-1.9-6.1-7.9s1.6-7.9,6.1-7.9C310.8,80.9,312.4,82.8,312.4,88.8
		z M302.6,88.8c0,4.5,0.9,5.9,3.7,5.9c2.9,0,3.8-1.4,3.8-5.9s-0.9-5.9-3.8-5.9C303.5,82.9,302.6,84.3,302.6,88.8z"/>
	<path fill="#00AAD0" d="M339.7,81.2c0.6,0,0.9,0.3,0.9,0.9l0.6,14.3H339L338.5,83H338L335,93.8c-0.1,0.5-0.4,0.7-0.9,0.7h-1.9
		c-0.5,0-0.8-0.2-1-0.7L328,83h-0.4l-0.5,13.4h-2.2l0.6-14.3c0-0.6,0.3-0.9,0.9-0.9h2.4c0.5,0,0.8,0.3,0.9,0.7l2.6,8.9
		c0.2,0.7,0.4,1.4,0.5,2h0.4c0.2-0.7,0.3-1.3,0.5-2.1l2.6-8.9c0.2-0.5,0.4-0.7,1-0.7H339.7z"/>
</g>
</svg>
